<svg width="24" height="23" viewBox="0 0 24 23" fill="none" xmlns="http://www.w3.org/2000/svg">
<g id="Iconly/Light/Filter">
<g id="Filter">
<path id="Stroke 1" d="M10.33 15.6017H4.0293" stroke="#1D204F" stroke-width="1.5" stroke-linecap="round" stroke-linejoin="round"/>
<path id="Stroke 3" d="M13.1406 6.50921H19.4413" stroke="#1D204F" stroke-width="1.5" stroke-linecap="round" stroke-linejoin="round"/>
<path id="Stroke 5" fill-rule="evenodd" clip-rule="evenodd" d="M8.72629 6.45056C8.72629 5.2355 7.66813 4.25024 6.36314 4.25024C5.05816 4.25024 4 5.2355 4 6.45056C4 7.66563 5.05816 8.65088 6.36314 8.65088C7.66813 8.65088 8.72629 7.66563 8.72629 6.45056Z" stroke="#1D204F" stroke-width="1.5" stroke-linecap="round" stroke-linejoin="round"/>
<path id="Stroke 7" fill-rule="evenodd" clip-rule="evenodd" d="M19.9997 15.5577C19.9997 14.3427 18.9424 13.3574 17.6374 13.3574C16.3316 13.3574 15.2734 14.3427 15.2734 15.5577C15.2734 16.7728 16.3316 17.7581 17.6374 17.7581C18.9424 17.7581 19.9997 16.7728 19.9997 15.5577Z" stroke="#1D204F" stroke-width="1.5" stroke-linecap="round" stroke-linejoin="round"/>
</g>
</g>
</svg>
